<svg xmlns="http://www.w3.org/2000/svg" viewBox="0 0 1440 320"><path fill="#00ed64" fill-opacity="1" d="M0,96L21.8,117.3C43.6,139,87,181,131,176C174.5,171,218,117,262,112C305.5,107,349,149,393,149.3C436.4,149,480,107,524,96C567.3,85,611,107,655,106.7C698.2,107,742,85,785,69.3C829.1,53,873,43,916,69.3C960,96,1004,160,1047,192C1090.9,224,1135,224,1178,224C1221.8,224,1265,224,1309,213.3C1352.7,203,1396,181,1418,170.7L1440,160L1440,320L1418.2,320C1396.4,320,1353,320,1309,320C1265.5,320,1222,320,1178,320C1134.5,320,1091,320,1047,320C1003.6,320,960,320,916,320C872.7,320,829,320,785,320C741.8,320,698,320,655,320C610.9,320,567,320,524,320C480,320,436,320,393,320C349.1,320,305,320,262,320C218.2,320,175,320,131,320C87.3,320,44,320,22,320L0,320Z"></path></svg>