<svg width="620" height="285" viewBox="0 0 620 285" fill="none" xmlns="http://www.w3.org/2000/svg">
<path d="M117.062 193.5C114.979 193.5 112.229 193.458 108.812 193.375C105.479 193.375 101.521 193.333 96.9375 193.25C92.3542 193.167 88.1875 193.083 84.4375 193C80.6875 193 77.3542 193 74.4375 193L59.3125 193.375C59.0625 193.125 58.9375 192.458 58.9375 191.375C58.9375 190.292 59.0625 189.75 59.3125 189.75C60.0625 189.75 61.0625 189.625 62.3125 189.375C63.5625 189.042 64.7292 188.667 65.8125 188.25C66.9792 187.833 67.6875 187.375 67.9375 186.875C68.5208 185.958 68.8125 182.042 68.8125 175.125V127.875C68.8125 125.458 68.7292 123.333 68.5625 121.5C68.4792 119.667 68.2708 118.208 67.9375 117.125C67.7708 116.625 67.1042 116.167 65.9375 115.75C64.8542 115.333 63.6458 115 62.3125 114.75C61.0625 114.5 60.0625 114.375 59.3125 114.375C58.9792 114.375 58.8125 113.875 58.8125 112.875C58.8125 111.792 58.9792 111.083 59.3125 110.75C61.4792 110.833 63.7708 110.917 66.1875 111C68.6875 111 71.3542 111 74.1875 111C76.1042 111 78.6875 110.958 81.9375 110.875C85.1875 110.792 89.1042 110.667 93.6875 110.5C98.3542 110.333 102.396 110.208 105.812 110.125C109.312 110.042 112.229 110 114.562 110C114.729 111.167 114.979 112.583 115.312 114.25C115.646 115.833 116.062 117.583 116.562 119.5C116.979 121.5 117.312 123.125 117.562 124.375C117.896 125.625 118.104 126.5 118.188 127C117.771 127.417 117.021 127.625 115.938 127.625C114.854 127.625 114.271 127.333 114.188 126.75C112.938 122.167 111.188 119.25 108.938 118C106.688 116.667 103.604 116 99.6875 116H91.3125C84.0625 116 80.3958 116.542 80.3125 117.625C80.1458 118.625 79.9792 120 79.8125 121.75C79.7292 123.5 79.6875 125.625 79.6875 128.125V148.125C79.6875 148.625 81.4792 148.875 85.0625 148.875H91.6875C94.5208 148.875 96.4375 148.875 97.4375 148.875C98.4375 148.792 99.1458 148.667 99.5625 148.5C100.062 148.333 100.979 148.083 102.312 147.75C103.146 147.583 103.771 146.625 104.188 144.875C104.688 143.042 105.104 141.542 105.438 140.375C105.521 139.792 106.146 139.5 107.312 139.5C108.312 139.5 109.021 139.708 109.438 140.125V163.75C109.104 164.083 108.438 164.25 107.438 164.25C106.354 164.25 105.688 163.917 105.438 163.25C105.104 162.083 104.812 161.083 104.562 160.25C104.312 159.417 104.104 158.708 103.938 158.125C103.521 156.958 103.188 156.292 102.938 156.125C102.771 155.958 102.438 155.708 101.938 155.375C100.771 154.708 96.3542 154.375 88.6875 154.375C82.6875 154.375 79.6875 154.75 79.6875 155.5V174.875C79.6875 180.292 80.0625 184.083 80.8125 186.25C81.0625 187.083 83.8958 187.5 89.3125 187.5H95.3125C102.979 187.5 108.229 186.792 111.062 185.375C112.312 184.708 113.688 183.25 115.188 181C116.771 178.667 118.021 175.917 118.938 172.75C119.104 172.25 119.688 172 120.688 172C122.271 172 123.312 172.25 123.812 172.75C123.562 173.417 123.146 174.458 122.562 175.875C122.062 177.208 121.562 178.583 121.062 180C120.562 181.417 120.146 182.625 119.812 183.625C119.312 185.125 118.771 186.833 118.188 188.75C117.604 190.667 117.229 192.25 117.062 193.5ZM156.062 193.875C155.396 192.292 154.271 189.708 152.688 186.125C151.188 182.542 149.229 177.958 146.812 172.375C144.396 166.708 142.146 161.625 140.062 157.125C137.979 152.542 136.021 148.458 134.188 144.875C133.271 143.208 130.812 142.375 126.812 142.375C126.479 142.375 126.312 141.833 126.312 140.75C126.312 139.75 126.479 139.083 126.812 138.75C128.979 138.833 131.146 138.958 133.312 139.125C135.479 139.292 137.646 139.375 139.812 139.375C141.896 139.375 143.979 139.292 146.062 139.125C148.146 138.958 150.229 138.833 152.312 138.75C152.479 139.083 152.479 139.792 152.312 140.875C152.229 141.875 152.062 142.375 151.812 142.375C147.729 142.375 145.688 143.083 145.688 144.5C145.688 144.583 145.729 144.75 145.812 145C145.896 145.167 145.979 145.333 146.062 145.5L160.812 178.875L173.438 150.125C173.854 149.292 174.104 148.583 174.188 148C174.354 147.333 174.438 146.792 174.438 146.375C174.438 143.708 171.438 142.375 165.438 142.375C165.104 142.375 164.938 141.833 164.938 140.75C164.938 139.75 165.104 139.083 165.438 138.75C166.354 138.833 168.062 139 170.562 139.25C173.062 139.417 175.312 139.458 177.312 139.375L189.812 138.75C189.979 139.417 190.062 140.042 190.062 140.625C190.062 141.792 189.771 142.375 189.188 142.375C188.021 142.375 186.479 142.708 184.562 143.375C182.646 144.042 181.354 145.125 180.688 146.625L160.812 191.5C160.229 192.833 159.354 193.667 158.188 194C157.021 194.417 156.312 194.375 156.062 193.875ZM218.062 193.75C213.479 193.75 209.271 192.542 205.438 190.125C201.604 187.708 198.521 184.5 196.188 180.5C193.938 176.417 192.812 171.875 192.812 166.875C192.812 161.042 193.896 156 196.062 151.75C198.229 147.5 201.188 144.25 204.938 142C208.688 139.667 212.896 138.5 217.562 138.5C221.396 138.5 224.771 139.25 227.688 140.75C230.604 142.167 232.854 144 234.438 146.25C235.938 148.583 237.021 150.958 237.688 153.375C238.438 155.708 238.812 158.042 238.812 160.375C238.812 162.042 238.562 163.083 238.062 163.5C237.562 163.833 236.604 164 235.188 164H203.688C203.021 164 202.688 164.208 202.688 164.625C202.688 168.125 203.396 171.5 204.812 174.75C206.229 177.917 208.312 180.542 211.062 182.625C213.812 184.708 217.188 185.75 221.188 185.75C224.688 185.75 227.604 185.25 229.938 184.25C232.354 183.167 234.104 182.208 235.188 181.375L236.062 180.75C236.562 180.75 236.812 181.292 236.812 182.375C236.812 182.958 236.562 183.708 236.062 184.625C234.396 186.958 231.938 189.083 228.688 191C225.438 192.833 221.896 193.75 218.062 193.75ZM203.688 158.75H228.062C228.479 158.75 228.688 158.333 228.688 157.5C228.688 155.667 228.188 153.667 227.188 151.5C226.271 149.25 224.854 147.292 222.938 145.625C221.021 143.958 218.604 143.125 215.688 143.125C213.021 143.125 210.729 144.042 208.812 145.875C206.896 147.625 205.438 149.667 204.438 152C203.438 154.25 202.938 156.208 202.938 157.875C202.938 158.458 203.188 158.75 203.688 158.75ZM246.062 193.375C245.729 193.042 245.562 192.333 245.562 191.25C245.562 190.25 245.729 189.75 246.062 189.75C246.729 189.75 247.646 189.625 248.812 189.375C249.979 189.125 251.062 188.792 252.062 188.375C253.062 187.958 253.604 187.583 253.688 187.25C254.021 186.083 254.229 184.75 254.312 183.25C254.479 181.75 254.562 180.167 254.562 178.5V154.875C254.562 151.708 253.979 149.458 252.812 148.125C251.979 147.125 250.979 146.458 249.812 146.125C248.729 145.792 247.729 145.625 246.812 145.625C245.979 145.542 245.562 145.417 245.562 145.25C245.562 143.25 245.812 142.208 246.312 142.125C250.729 141.458 254.312 140.875 257.062 140.375C259.812 139.792 261.521 139.417 262.188 139.25L264.188 138.75C264.521 138.667 264.729 139 264.812 139.75C264.896 140.5 264.896 141.042 264.812 141.375C264.646 142.542 264.521 143.542 264.438 144.375C264.354 145.208 264.312 145.875 264.312 146.375C264.312 146.708 264.396 146.875 264.562 146.875C264.646 146.875 264.771 146.792 264.938 146.625C266.854 144.625 269.438 142.75 272.688 141C276.021 139.167 279.188 138.25 282.188 138.25C288.021 138.25 292.104 140.333 294.438 144.5C296.771 148.667 297.938 155.417 297.938 164.75V176.125C297.938 178.542 298.021 180.667 298.188 182.5C298.354 184.333 298.604 185.917 298.938 187.25C299.104 187.583 299.688 187.958 300.688 188.375C301.688 188.792 302.771 189.125 303.938 189.375C305.104 189.625 305.938 189.75 306.438 189.75C306.688 189.75 306.854 190.25 306.938 191.25C307.021 192.25 306.979 192.958 306.812 193.375L293.438 192.75L280.312 193.375C279.979 193.042 279.812 192.333 279.812 191.25C279.812 190.25 279.979 189.75 280.312 189.75C280.979 189.75 281.854 189.625 282.938 189.375C284.021 189.125 285.021 188.792 285.938 188.375C286.854 187.958 287.354 187.583 287.438 187.25C287.771 186.083 287.979 184.75 288.062 183.25C288.229 181.75 288.312 180.167 288.312 178.5V166C288.312 158.25 287.312 152.958 285.312 150.125C283.312 147.292 280.062 145.875 275.562 145.875C273.812 145.875 272.062 146.375 270.312 147.375C268.562 148.292 267.104 149.375 265.938 150.625C264.771 151.875 264.188 153.042 264.188 154.125V176.125C264.188 178.542 264.271 180.667 264.438 182.5C264.604 184.333 264.854 185.917 265.188 187.25C265.354 187.583 265.938 187.958 266.938 188.375C267.938 188.792 269.021 189.125 270.188 189.375C271.354 189.625 272.188 189.75 272.688 189.75C272.938 189.75 273.104 190.25 273.188 191.25C273.271 192.25 273.229 192.958 273.062 193.375L259.688 192.75L246.062 193.375ZM334.438 193.875C330.271 193.875 326.771 192.5 323.938 189.75C321.188 187 319.812 183.083 319.812 178V146.25H312.562C312.146 146.25 311.938 145.375 311.938 143.625C311.938 143.125 311.979 142.833 312.062 142.75C314.562 141.583 317.188 139.375 319.938 136.125C321.854 133.875 323.271 131.917 324.188 130.25C325.188 128.583 325.688 127.583 325.688 127.25C328.188 127.25 329.438 127.458 329.438 127.875V140.25L339.312 140.375H346.312C346.979 140.375 347.312 140.75 347.312 141.5C347.312 143.083 346.896 144.667 346.062 146.25H329.438V176.875C329.438 180.208 330.271 182.875 331.938 184.875C333.688 186.875 335.938 187.875 338.688 187.875C341.271 187.875 343.854 187.083 346.438 185.5C346.688 185.333 347.062 185.708 347.562 186.625C348.062 187.458 348.271 187.917 348.188 188C346.938 189.333 345.021 190.667 342.438 192C339.854 193.25 337.188 193.875 334.438 193.875ZM429.062 193.625C417.479 193.625 407.354 187.625 398.688 175.625C398.021 174.708 397.146 173.458 396.062 171.875C395.062 170.292 393.188 167.5 390.438 163.5C389.104 161.583 387.896 160 386.812 158.75C385.812 157.417 384.604 156.417 383.188 155.75C381.854 155.083 380.021 154.75 377.688 154.75C376.771 154.75 376.021 154.875 375.438 155.125C374.938 155.375 374.688 155.958 374.688 156.875V175.25C374.688 180.75 375.021 184.375 375.688 186.125C376.021 186.792 376.812 187.417 378.062 188C379.396 188.583 380.812 189.042 382.312 189.375C383.812 189.625 384.896 189.75 385.562 189.75C385.896 189.75 386.062 190.333 386.062 191.5C386.062 192.083 385.979 192.708 385.812 193.375C381.646 193.208 378.188 193.042 375.438 192.875C372.771 192.708 370.812 192.667 369.562 192.75L354.312 193.375C354.062 193.125 353.938 192.375 353.938 191.125C353.938 190.042 354.062 189.5 354.312 189.5C355.146 189.5 356.146 189.375 357.312 189.125C358.562 188.875 359.729 188.583 360.812 188.25C361.979 187.833 362.688 187.375 362.938 186.875C363.521 185.958 363.812 182.042 363.812 175.125V127.875C363.812 125.458 363.729 123.333 363.562 121.5C363.479 119.667 363.271 118.208 362.938 117.125C362.771 116.625 362.104 116.167 360.938 115.75C359.854 115.333 358.646 115 357.312 114.75C356.062 114.5 355.062 114.375 354.312 114.375C353.979 114.375 353.812 113.875 353.812 112.875C353.812 111.792 353.979 111.083 354.312 110.75L369.312 111C371.729 111.083 374.688 111.042 378.188 110.875C381.688 110.625 384.604 110.5 386.938 110.5C391.438 110.5 395.729 111.375 399.812 113.125C403.979 114.875 407.354 117.458 409.938 120.875C412.604 124.292 413.938 128.458 413.938 133.375C413.938 136.875 412.604 140.542 409.938 144.375C407.354 148.208 403.812 151.167 399.312 153.25C398.479 153.583 398.229 154 398.562 154.5C402.646 163.167 407.438 170.5 412.938 176.5C420.938 185.25 427.438 189.625 432.438 189.625C432.688 190.125 432.812 190.708 432.812 191.375C432.812 192.125 432.688 192.75 432.438 193.25C431.604 193.5 430.479 193.625 429.062 193.625ZM385.562 149.375H388.688C390.688 149.375 392.729 148.708 394.812 147.375C396.979 146.042 398.771 144.167 400.188 141.75C401.688 139.333 402.438 136.542 402.438 133.375C402.438 121.792 396.604 116 384.938 116C381.104 116 378.188 116.292 376.188 116.875C375.438 117.042 374.979 118.417 374.812 121C374.729 123.5 374.688 126.708 374.688 130.625V145.75C374.688 148.167 378.312 149.375 385.562 149.375ZM436.062 193.375C435.729 193.042 435.562 192.333 435.562 191.25C435.562 190.25 435.729 189.75 436.062 189.75C436.729 189.75 437.646 189.625 438.812 189.375C439.979 189.125 441.062 188.792 442.062 188.375C443.062 187.958 443.604 187.583 443.688 187.25C444.021 186.083 444.229 184.75 444.312 183.25C444.479 181.75 444.562 180.167 444.562 178.5V154.875C444.562 151.708 443.979 149.458 442.812 148.125C441.979 147.042 440.979 146.375 439.812 146.125C438.646 145.792 437.646 145.625 436.812 145.625C435.979 145.542 435.562 145.417 435.562 145.25C435.562 143.25 435.812 142.208 436.312 142.125C440.729 141.458 444.104 140.917 446.438 140.5C448.771 140 450.854 139.542 452.688 139.125L454.188 138.75C454.521 138.667 454.729 139 454.812 139.75C454.896 140.5 454.896 141.042 454.812 141.375C454.646 143.042 454.479 144.625 454.312 146.125C454.229 147.625 454.188 149.042 454.188 150.375V176.125C454.188 178.542 454.271 180.667 454.438 182.5C454.604 184.333 454.854 185.917 455.188 187.25C455.354 187.583 455.938 187.958 456.938 188.375C457.938 188.792 459.021 189.125 460.188 189.375C461.354 189.625 462.188 189.75 462.688 189.75C462.938 189.75 463.104 190.25 463.188 191.25C463.271 192.25 463.229 192.958 463.062 193.375L449.688 192.75L436.062 193.375ZM448.438 125.125C446.771 125.125 445.312 124.5 444.062 123.25C442.812 122 442.188 120.542 442.188 118.875C442.188 117.125 442.812 115.667 444.062 114.5C445.312 113.25 446.771 112.625 448.438 112.625C450.188 112.625 451.646 113.25 452.812 114.5C454.062 115.667 454.688 117.125 454.688 118.875C454.688 120.542 454.062 122 452.812 123.25C451.646 124.5 450.188 125.125 448.438 125.125ZM472.938 193C471.271 192 470.438 191.042 470.438 190.125C470.438 189.875 470.479 189.708 470.562 189.625L502.688 145L484.062 144.875C481.729 144.875 480.021 145.542 478.938 146.875C477.854 148.125 477.104 149.5 476.688 151C476.354 152.417 476.104 153.417 475.938 154C475.688 154.5 474.688 154.75 472.938 154.75C472.021 154.75 471.562 154.625 471.562 154.375C471.562 154.208 471.604 153.625 471.688 152.625C471.854 151.625 472.104 150.208 472.438 148.375C473.104 144.708 473.479 141.667 473.562 139.25C478.479 139.75 482.438 140 485.438 140H500.688C503.021 140 505.438 139.917 507.938 139.75C510.521 139.583 513.188 139.333 515.938 139C516.188 139.333 516.312 140.333 516.312 142L484.562 185.375C483.979 186.208 483.688 186.792 483.688 187.125C483.688 187.708 484.188 188 485.188 188H501.562C505.062 188 507.604 187.125 509.188 185.375C510.854 183.625 512.146 181.167 513.062 178C513.229 177.083 513.562 176.625 514.062 176.625C515.896 176.625 517.104 177.125 517.688 178.125L515.062 193H472.938ZM548.438 193.75C543.854 193.75 539.646 192.542 535.812 190.125C531.979 187.708 528.896 184.5 526.562 180.5C524.312 176.417 523.188 171.875 523.188 166.875C523.188 161.042 524.271 156 526.438 151.75C528.604 147.5 531.562 144.25 535.312 142C539.062 139.667 543.271 138.5 547.938 138.5C551.771 138.5 555.146 139.25 558.062 140.75C560.979 142.167 563.229 144 564.812 146.25C566.312 148.583 567.396 150.958 568.062 153.375C568.812 155.708 569.188 158.042 569.188 160.375C569.188 162.042 568.938 163.083 568.438 163.5C567.938 163.833 566.979 164 565.562 164H534.062C533.396 164 533.062 164.208 533.062 164.625C533.062 168.125 533.771 171.5 535.188 174.75C536.604 177.917 538.688 180.542 541.438 182.625C544.188 184.708 547.562 185.75 551.562 185.75C555.062 185.75 557.979 185.25 560.312 184.25C562.729 183.167 564.479 182.208 565.562 181.375L566.438 180.75C566.938 180.75 567.188 181.292 567.188 182.375C567.188 182.958 566.938 183.708 566.438 184.625C564.771 186.958 562.312 189.083 559.062 191C555.812 192.833 552.271 193.75 548.438 193.75ZM534.062 158.75H558.438C558.854 158.75 559.062 158.333 559.062 157.5C559.062 155.667 558.562 153.667 557.562 151.5C556.646 149.25 555.229 147.292 553.312 145.625C551.396 143.958 548.979 143.125 546.062 143.125C543.396 143.125 541.104 144.042 539.188 145.875C537.271 147.625 535.812 149.667 534.812 152C533.812 154.25 533.312 156.208 533.312 157.875C533.312 158.458 533.562 158.75 534.062 158.75ZM576.938 193.375C576.604 193.042 576.438 192.333 576.438 191.25C576.438 190.25 576.604 189.75 576.938 189.75C577.604 189.75 578.521 189.625 579.688 189.375C580.854 189.125 581.938 188.792 582.938 188.375C583.938 187.958 584.479 187.583 584.562 187.25C584.896 186.083 585.104 184.75 585.188 183.25C585.354 181.75 585.438 180.167 585.438 178.5V154.875C585.438 151.708 584.854 149.458 583.688 148.125C582.854 147.125 581.854 146.458 580.688 146.125C579.604 145.792 578.604 145.625 577.688 145.625C576.854 145.542 576.438 145.417 576.438 145.25C576.438 143.25 576.688 142.208 577.188 142.125C586.271 140.708 591.521 139.792 592.938 139.375L595.062 138.75C595.396 138.667 595.604 139 595.688 139.75C595.771 140.5 595.771 141.042 595.688 141.375L594.938 147.625C596.438 145.375 598.479 143.292 601.062 141.375C603.729 139.375 606.354 138.375 608.938 138.375C613.771 138.375 617.021 139.583 618.688 142C618.688 144.917 618.229 147.042 617.312 148.375C616.396 149.708 615.271 150.375 613.938 150.375C612.438 150.375 611.062 149.667 609.812 148.25C608.562 146.833 606.854 146.125 604.688 146.125C603.021 146.125 601.438 146.708 599.938 147.875C598.438 148.958 597.229 150.375 596.312 152.125C595.479 153.792 595.062 155.542 595.062 157.375V176.125C595.062 178.542 595.146 180.667 595.312 182.5C595.479 184.333 595.729 185.917 596.062 187.25C596.229 187.583 596.812 187.958 597.812 188.375C598.812 188.792 599.896 189.125 601.062 189.375C602.312 189.625 603.188 189.75 603.688 189.75C603.938 189.75 604.104 190.25 604.188 191.25C604.271 192.25 604.229 192.958 604.062 193.375L590.562 192.75L576.938 193.375Z" fill="black"/>
<path d="M288.52 275.4C287.4 275.4 286.36 275.2 285.4 274.8C284.44 274.4 283.613 273.84 282.92 273.12C282.227 272.4 281.707 271.587 281.36 270.68L281.8 270.12L281.52 275H278.72V245.8H281.92V259.52L281.52 258.92C282.053 257.667 282.947 256.64 284.2 255.84C285.48 255.013 286.933 254.6 288.56 254.6C290.213 254.6 291.733 255.013 293.12 255.84C294.507 256.667 295.613 257.853 296.44 259.4C297.267 260.947 297.68 262.813 297.68 265C297.68 267.16 297.253 269.027 296.4 270.6C295.573 272.147 294.467 273.333 293.08 274.16C291.693 274.987 290.173 275.4 288.52 275.4ZM288.2 272.6C290.173 272.6 291.707 271.907 292.8 270.52C293.92 269.133 294.48 267.293 294.48 265C294.48 262.707 293.933 260.867 292.84 259.48C291.747 258.093 290.213 257.4 288.24 257.4C286.987 257.4 285.88 257.72 284.92 258.36C283.987 259 283.253 259.893 282.72 261.04C282.187 262.187 281.92 263.533 281.92 265.08C281.92 266.6 282.173 267.933 282.68 269.08C283.213 270.2 283.947 271.067 284.88 271.68C285.84 272.293 286.947 272.6 288.2 272.6ZM319.652 255L310.252 278.36C309.746 279.667 309.186 280.693 308.572 281.44C307.986 282.213 307.319 282.76 306.572 283.08C305.852 283.427 305.012 283.6 304.052 283.6C303.146 283.6 302.306 283.467 301.532 283.2C300.786 282.96 300.119 282.627 299.532 282.2L300.412 279.4C300.946 279.88 301.506 280.227 302.092 280.44C302.706 280.68 303.306 280.8 303.892 280.8C304.586 280.8 305.239 280.587 305.852 280.16C306.466 279.733 307.026 278.867 307.532 277.56L308.572 274.96L306.572 270.2L300.212 255H303.852L308.852 268.04L310.092 271.6L311.532 267.64L316.212 255H319.652ZM358.334 268.24C357.774 269.733 356.974 271.027 355.934 272.12C354.894 273.187 353.668 274 352.254 274.56C350.868 275.12 349.348 275.4 347.694 275.4C345.188 275.4 343.014 274.853 341.174 273.76C339.361 272.64 337.948 271.067 336.934 269.04C335.948 267.013 335.454 264.6 335.454 261.8C335.454 259 335.948 256.587 336.934 254.56C337.948 252.533 339.361 250.973 341.174 249.88C343.014 248.76 345.161 248.2 347.614 248.2C349.321 248.2 350.841 248.44 352.174 248.92C353.508 249.373 354.641 250.067 355.574 251C356.534 251.907 357.294 253.027 357.854 254.36L354.694 255.84C354.108 254.32 353.254 253.173 352.134 252.4C351.041 251.6 349.614 251.2 347.854 251.2C346.068 251.2 344.494 251.627 343.134 252.48C341.774 253.307 340.708 254.507 339.934 256.08C339.188 257.653 338.814 259.56 338.814 261.8C338.814 264.013 339.174 265.92 339.894 267.52C340.614 269.093 341.641 270.307 342.974 271.16C344.308 271.987 345.881 272.4 347.694 272.4C349.454 272.4 350.988 271.96 352.294 271.08C353.601 270.173 354.548 268.827 355.134 267.04L358.334 268.24ZM372.156 254.6C374.05 254.6 375.716 255.013 377.156 255.84C378.623 256.667 379.77 257.867 380.596 259.44C381.423 260.987 381.836 262.84 381.836 265C381.836 267.16 381.423 269.027 380.596 270.6C379.77 272.147 378.623 273.333 377.156 274.16C375.716 274.987 374.05 275.4 372.156 275.4C370.29 275.4 368.623 274.987 367.156 274.16C365.69 273.333 364.543 272.147 363.716 270.6C362.89 269.027 362.476 267.16 362.476 265C362.476 262.84 362.89 260.987 363.716 259.44C364.543 257.867 365.69 256.667 367.156 255.84C368.623 255.013 370.29 254.6 372.156 254.6ZM372.156 257.36C370.796 257.36 369.636 257.667 368.676 258.28C367.716 258.893 366.97 259.773 366.436 260.92C365.93 262.04 365.676 263.4 365.676 265C365.676 266.573 365.93 267.933 366.436 269.08C366.97 270.227 367.716 271.107 368.676 271.72C369.636 272.333 370.796 272.64 372.156 272.64C373.516 272.64 374.676 272.333 375.636 271.72C376.596 271.107 377.33 270.227 377.836 269.08C378.37 267.933 378.636 266.573 378.636 265C378.636 263.4 378.37 262.04 377.836 260.92C377.33 259.773 376.596 258.893 375.636 258.28C374.676 257.667 373.516 257.36 372.156 257.36ZM395.661 275.4C394.007 275.4 392.487 274.987 391.101 274.16C389.714 273.333 388.607 272.147 387.781 270.6C386.954 269.027 386.541 267.16 386.541 265C386.541 262.787 386.981 260.907 387.861 259.36C388.741 257.813 389.901 256.64 391.341 255.84C392.781 255.013 394.327 254.6 395.981 254.6C397.634 254.6 399.061 255.027 400.261 255.88C401.487 256.733 402.301 257.867 402.701 259.28L402.301 259.56V245.8H405.501V275H402.701L402.421 270.16L402.861 269.92C402.674 271.093 402.221 272.093 401.501 272.92C400.807 273.72 399.941 274.333 398.901 274.76C397.887 275.187 396.807 275.4 395.661 275.4ZM395.981 272.6C397.261 272.6 398.367 272.28 399.301 271.64C400.261 271 400.994 270.093 401.501 268.92C402.034 267.72 402.301 266.32 402.301 264.72C402.301 263.2 402.034 261.893 401.501 260.8C400.994 259.707 400.274 258.867 399.341 258.28C398.434 257.693 397.367 257.4 396.141 257.4C394.114 257.4 392.541 258.093 391.421 259.48C390.301 260.867 389.741 262.707 389.741 265C389.741 267.293 390.287 269.133 391.381 270.52C392.474 271.907 394.007 272.6 395.981 272.6ZM421.299 275.4C419.405 275.4 417.712 274.987 416.219 274.16C414.752 273.333 413.605 272.147 412.779 270.6C411.952 269.027 411.539 267.16 411.539 265C411.539 262.84 411.952 260.987 412.779 259.44C413.605 257.867 414.739 256.667 416.179 255.84C417.619 255.013 419.259 254.6 421.099 254.6C422.965 254.6 424.552 255 425.859 255.8C427.192 256.6 428.205 257.693 428.899 259.08C429.592 260.44 429.939 261.973 429.939 263.68C429.939 264.133 429.925 264.547 429.899 264.92C429.872 265.293 429.832 265.627 429.779 265.92H413.619V263.08H428.379L426.739 263.4C426.739 261.48 426.205 260 425.139 258.96C424.099 257.92 422.725 257.4 421.019 257.4C419.712 257.4 418.579 257.707 417.619 258.32C416.685 258.907 415.952 259.773 415.419 260.92C414.912 262.04 414.659 263.4 414.659 265C414.659 266.573 414.925 267.933 415.459 269.08C415.992 270.227 416.739 271.107 417.699 271.72C418.685 272.307 419.859 272.6 421.219 272.6C422.685 272.6 423.872 272.32 424.779 271.76C425.712 271.2 426.459 270.44 427.019 269.48L429.539 270.96C429.032 271.867 428.379 272.653 427.579 273.32C426.805 273.987 425.885 274.507 424.819 274.88C423.779 275.227 422.605 275.4 421.299 275.4ZM471.538 268.24C470.978 269.733 470.178 271.027 469.138 272.12C468.098 273.187 466.871 274 465.458 274.56C464.071 275.12 462.551 275.4 460.898 275.4C458.391 275.4 456.218 274.853 454.378 273.76C452.564 272.64 451.151 271.067 450.138 269.04C449.151 267.013 448.658 264.6 448.658 261.8C448.658 259 449.151 256.587 450.138 254.56C451.151 252.533 452.564 250.973 454.378 249.88C456.218 248.76 458.364 248.2 460.818 248.2C462.524 248.2 464.044 248.44 465.378 248.92C466.711 249.373 467.844 250.067 468.778 251C469.738 251.907 470.498 253.027 471.058 254.36L467.898 255.84C467.311 254.32 466.458 253.173 465.338 252.4C464.244 251.6 462.818 251.2 461.058 251.2C459.271 251.2 457.698 251.627 456.338 252.48C454.978 253.307 453.911 254.507 453.138 256.08C452.391 257.653 452.018 259.56 452.018 261.8C452.018 264.013 452.378 265.92 453.098 267.52C453.818 269.093 454.844 270.307 456.178 271.16C457.511 271.987 459.084 272.4 460.898 272.4C462.658 272.4 464.191 271.96 465.498 271.08C466.804 270.173 467.751 268.827 468.338 267.04L471.538 268.24ZM477.079 275V255H479.679L480.119 258.28C480.679 257.053 481.493 256.133 482.559 255.52C483.653 254.907 484.973 254.6 486.519 254.6C486.866 254.6 487.239 254.627 487.639 254.68C488.066 254.733 488.426 254.84 488.719 255L488.159 257.92C487.866 257.813 487.546 257.733 487.199 257.68C486.853 257.627 486.359 257.6 485.719 257.6C484.893 257.6 484.053 257.84 483.199 258.32C482.373 258.8 481.679 259.533 481.119 260.52C480.559 261.48 480.279 262.707 480.279 264.2V275H477.079ZM504.541 262.08C504.541 260.587 504.141 259.44 503.341 258.64C502.541 257.813 501.407 257.4 499.941 257.4C498.554 257.4 497.381 257.707 496.421 258.32C495.461 258.907 494.754 259.867 494.301 261.2L491.701 259.6C492.234 258.107 493.221 256.907 494.661 256C496.101 255.067 497.887 254.6 500.021 254.6C501.461 254.6 502.767 254.853 503.941 255.36C505.114 255.84 506.034 256.587 506.701 257.6C507.394 258.587 507.741 259.867 507.741 261.44V271.12C507.741 272.08 508.247 272.56 509.261 272.56C509.767 272.56 510.261 272.493 510.741 272.36L510.581 274.88C510.047 275.147 509.354 275.28 508.501 275.28C507.727 275.28 507.034 275.133 506.421 274.84C505.807 274.547 505.327 274.107 504.981 273.52C504.634 272.907 504.461 272.147 504.461 271.24V270.84L505.261 270.96C504.941 272 504.394 272.853 503.621 273.52C502.847 274.16 501.981 274.64 501.021 274.96C500.061 275.253 499.114 275.4 498.181 275.4C497.007 275.4 495.914 275.2 494.901 274.8C493.887 274.4 493.074 273.8 492.461 273C491.874 272.173 491.581 271.16 491.581 269.96C491.581 268.467 492.074 267.24 493.061 266.28C494.074 265.293 495.474 264.627 497.261 264.28L505.181 262.72V265.36L498.741 266.68C497.434 266.947 496.461 267.32 495.821 267.8C495.181 268.28 494.861 268.947 494.861 269.8C494.861 270.627 495.181 271.307 495.821 271.84C496.487 272.347 497.421 272.6 498.621 272.6C499.394 272.6 500.127 272.507 500.821 272.32C501.541 272.107 502.181 271.8 502.741 271.4C503.301 270.973 503.741 270.453 504.061 269.84C504.381 269.2 504.541 268.453 504.541 267.6V262.08ZM523.442 245.6C524.135 245.6 524.788 245.68 525.402 245.84C526.015 246 526.495 246.227 526.842 246.52L526.002 249.12C525.682 248.907 525.335 248.76 524.962 248.68C524.588 248.573 524.175 248.52 523.722 248.52C522.575 248.52 521.682 248.8 521.042 249.36C520.402 249.893 520.082 250.76 520.082 251.96V255V256.04V275H516.882V251.64C516.882 250.76 517.015 249.947 517.282 249.2C517.548 248.453 517.948 247.813 518.482 247.28C519.042 246.747 519.735 246.333 520.562 246.04C521.388 245.747 522.348 245.6 523.442 245.6ZM526.762 255V257.76H512.882V255H526.762ZM533.753 249.32V269.48C533.753 270.467 534.033 271.2 534.593 271.68C535.153 272.16 535.873 272.4 536.753 272.4C537.526 272.4 538.193 272.267 538.753 272C539.313 271.733 539.819 271.373 540.273 270.92L541.393 273.6C540.779 274.16 540.046 274.6 539.193 274.92C538.366 275.24 537.406 275.4 536.313 275.4C535.299 275.4 534.353 275.227 533.473 274.88C532.593 274.507 531.886 273.933 531.353 273.16C530.846 272.36 530.579 271.32 530.553 270.04V250.2L533.753 249.32ZM541.033 255V257.76H526.553V255H541.033ZM554.15 275.4C552.257 275.4 550.564 274.987 549.07 274.16C547.604 273.333 546.457 272.147 545.63 270.6C544.804 269.027 544.39 267.16 544.39 265C544.39 262.84 544.804 260.987 545.63 259.44C546.457 257.867 547.59 256.667 549.03 255.84C550.47 255.013 552.11 254.6 553.95 254.6C555.817 254.6 557.404 255 558.71 255.8C560.044 256.6 561.057 257.693 561.75 259.08C562.444 260.44 562.79 261.973 562.79 263.68C562.79 264.133 562.777 264.547 562.75 264.92C562.724 265.293 562.684 265.627 562.63 265.92H546.47V263.08H561.23L559.59 263.4C559.59 261.48 559.057 260 557.99 258.96C556.95 257.92 555.577 257.4 553.87 257.4C552.564 257.4 551.43 257.707 550.47 258.32C549.537 258.907 548.804 259.773 548.27 260.92C547.764 262.04 547.51 263.4 547.51 265C547.51 266.573 547.777 267.933 548.31 269.08C548.844 270.227 549.59 271.107 550.55 271.72C551.537 272.307 552.71 272.6 554.07 272.6C555.537 272.6 556.724 272.32 557.63 271.76C558.564 271.2 559.31 270.44 559.87 269.48L562.39 270.96C561.884 271.867 561.23 272.653 560.43 273.32C559.657 273.987 558.737 274.507 557.67 274.88C556.63 275.227 555.457 275.4 554.15 275.4ZM568.876 275V255H571.476L571.916 258.28C572.476 257.053 573.29 256.133 574.356 255.52C575.45 254.907 576.77 254.6 578.316 254.6C578.663 254.6 579.036 254.627 579.436 254.68C579.863 254.733 580.223 254.84 580.516 255L579.956 257.92C579.663 257.813 579.343 257.733 578.996 257.68C578.65 257.627 578.156 257.6 577.516 257.6C576.69 257.6 575.85 257.84 574.996 258.32C574.17 258.8 573.476 259.533 572.916 260.52C572.356 261.48 572.076 262.707 572.076 264.2V275H568.876ZM591.545 275.4C589.598 275.4 587.798 274.987 586.145 274.16C584.518 273.333 583.265 272.16 582.385 270.64L585.105 268.68C585.692 269.907 586.545 270.867 587.665 271.56C588.812 272.253 590.185 272.6 591.785 272.6C593.198 272.6 594.305 272.333 595.105 271.8C595.905 271.24 596.305 270.52 596.305 269.64C596.305 269.08 596.118 268.573 595.745 268.12C595.398 267.64 594.718 267.293 593.705 267.08L588.905 266.08C586.958 265.68 585.558 265.013 584.705 264.08C583.878 263.147 583.465 261.987 583.465 260.6C583.465 259.507 583.772 258.507 584.385 257.6C585.025 256.693 585.918 255.973 587.065 255.44C588.238 254.88 589.612 254.6 591.185 254.6C593.158 254.6 594.825 254.987 596.185 255.76C597.545 256.533 598.558 257.627 599.225 259.04L596.545 260.8C596.092 259.627 595.358 258.773 594.345 258.24C593.332 257.68 592.278 257.4 591.185 257.4C590.225 257.4 589.398 257.533 588.705 257.8C588.038 258.067 587.518 258.44 587.145 258.92C586.798 259.373 586.625 259.893 586.625 260.48C586.625 261.067 586.825 261.613 587.225 262.12C587.625 262.6 588.372 262.947 589.465 263.16L594.465 264.2C596.332 264.573 597.638 265.187 598.385 266.04C599.132 266.893 599.505 267.933 599.505 269.16C599.505 270.413 599.172 271.52 598.505 272.48C597.838 273.413 596.905 274.133 595.705 274.64C594.505 275.147 593.118 275.4 591.545 275.4Z" fill="black"/>
<circle cx="36" cy="36" r="36" fill="#41DC5A"/>
</svg>
